<svg xmlns="http://www.w3.org/2000/svg" width="106" height="106" viewBox="0 0 106 106" fill="none"><metadata><rdf:RDF xmlns:rdf="http://www.w3.org/1999/02/22-rdf-syntax-ns#" xmlns:dc="http://purl.org/dc/elements/1.1/"><rdf:Description><dc:creator>RealFaviconGenerator</dc:creator><dc:source>https://realfavicongenerator.net</dc:source></rdf:Description></rdf:RDF></metadata><rect width="106" height="106" rx="6" fill="#F5F9FC"></rect><path d="M72.6911 52.7446L57.3175 43.8344L65.0677 25.2345C65.3382 24.6821 65.4641 24.0701 65.4336 23.4558C65.4032 22.8414 65.2174 22.2449 64.8936 21.7219C64.5698 21.1989 64.1186 20.7667 63.5823 20.4655C63.046 20.1644 62.4421 20.0042 61.827 20C61.0094 19.9969 60.2148 20.2703 59.5722 20.7758L59.3185 20.9933L32.131 46.7308C31.7223 47.1189 31.4095 47.5968 31.2174 48.1267C31.0253 48.6566 30.9592 49.224 31.0243 49.7838C31.0893 50.3437 31.2838 50.8808 31.5923 51.3525C31.9008 51.8242 32.3148 52.2177 32.8016 52.5018L48.1789 61.4193L40.338 80.233C40.0146 81.0004 39.9655 81.8559 40.1991 82.6552C40.4327 83.4546 40.9347 84.149 41.6204 84.6215C42.3062 85.094 43.1339 85.3157 43.964 85.2492C44.7941 85.1828 45.576 84.8323 46.1779 84.2568L73.3654 58.512C73.7732 58.1236 74.0851 57.6457 74.2765 57.116C74.4679 56.5863 74.5334 56.0194 74.468 55.46C74.4026 54.9006 74.2081 54.3641 73.8997 53.8929C73.5913 53.4216 73.1775 53.0285 72.6911 52.7446Z" fill="#7035EB"></path></svg>